<mxfile host="65bd71144e">
    <diagram id="HtwOWfqTovwS91FWe3rt" name="Page-1">
        <mxGraphModel dx="630" dy="526" grid="1" gridSize="10" guides="1" tooltips="1" connect="1" arrows="1" fold="1" page="1" pageScale="1" pageWidth="827" pageHeight="1169" math="0" shadow="0">
            <root>
                <mxCell id="0"/>
                <mxCell id="1" parent="0"/>
                <mxCell id="4" value="" style="edgeStyle=none;html=1;" edge="1" parent="1" source="2" target="3">
                    <mxGeometry relative="1" as="geometry"/>
                </mxCell>
                <mxCell id="2" value="计算属性实现" style="text;html=1;align=center;verticalAlign=middle;resizable=0;points=[];autosize=1;strokeColor=none;fillColor=none;" vertex="1" parent="1">
                    <mxGeometry x="20" y="185" width="100" height="30" as="geometry"/>
                </mxCell>
                <mxCell id="7" value="" style="edgeStyle=none;html=1;" edge="1" parent="1" source="3" target="6">
                    <mxGeometry relative="1" as="geometry"/>
                </mxCell>
                <mxCell id="3" value="判断传入的是函数还是对象" style="text;html=1;align=center;verticalAlign=middle;resizable=0;points=[];autosize=1;strokeColor=none;fillColor=none;" vertex="1" parent="1">
                    <mxGeometry x="165" y="185" width="170" height="30" as="geometry"/>
                </mxCell>
                <mxCell id="9" value="" style="edgeStyle=none;html=1;" edge="1" parent="1" source="6" target="8">
                    <mxGeometry relative="1" as="geometry"/>
                </mxCell>
                <mxCell id="6" value="1. 如果是函数，传入的就是getter，setter为空函数&lt;br&gt;2. 如果是对象的话就取出来get和set当做参数" style="text;html=1;align=center;verticalAlign=middle;resizable=0;points=[];autosize=1;strokeColor=none;fillColor=none;" vertex="1" parent="1">
                    <mxGeometry x="355" y="180" width="290" height="40" as="geometry"/>
                </mxCell>
                <mxCell id="8" value="然后根据computedRefimpl类返回实例" style="text;html=1;align=center;verticalAlign=middle;resizable=0;points=[];autosize=1;strokeColor=none;fillColor=none;" vertex="1" parent="1">
                    <mxGeometry x="760" y="185" width="220" height="30" as="geometry"/>
                </mxCell>
                <mxCell id="12" value="" style="edgeStyle=none;html=1;" edge="1" parent="1" source="10" target="11">
                    <mxGeometry relative="1" as="geometry"/>
                </mxCell>
                <mxCell id="14" value="" style="edgeStyle=none;html=1;" edge="1" parent="1" source="10">
                    <mxGeometry relative="1" as="geometry">
                        <mxPoint x="721" y="500" as="targetPoint"/>
                    </mxGeometry>
                </mxCell>
                <mxCell id="10" value="ComputedRefImpl类" style="text;html=1;align=center;verticalAlign=middle;resizable=0;points=[];autosize=1;strokeColor=none;fillColor=none;" vertex="1" parent="1">
                    <mxGeometry x="460" y="270" width="130" height="30" as="geometry"/>
                </mxCell>
                <mxCell id="11" value="&lt;div style=&quot;color: rgb(171, 178, 191); background-color: rgb(40, 44, 52); font-family: Monaco, Menlo, &amp;quot;Courier New&amp;quot;, monospace, Menlo, Monaco, &amp;quot;Courier New&amp;quot;, monospace; font-size: 13px; line-height: 20px;&quot;&gt;&lt;div&gt;&lt;span style=&quot;color: #e06c75;&quot;&gt;dep&lt;/span&gt;&lt;span style=&quot;color: #56b6c2;&quot;&gt;=&lt;/span&gt;&lt;span style=&quot;color: #d19a66;&quot;&gt;undefined&lt;/span&gt;&lt;/div&gt;&lt;div&gt;  &lt;span style=&quot;color: #e06c75;&quot;&gt;effect&lt;/span&gt;&lt;span style=&quot;color: #56b6c2;&quot;&gt;=&lt;/span&gt;&lt;span style=&quot;color: #d19a66;&quot;&gt;undefined&lt;/span&gt;&lt;/div&gt;&lt;div&gt;  &lt;span style=&quot;color: #e06c75;&quot;&gt;__v_isRef&lt;/span&gt;&lt;span style=&quot;color: #56b6c2;&quot;&gt;=&lt;/span&gt;&lt;span style=&quot;color: #d19a66;&quot;&gt;true&lt;/span&gt;&lt;/div&gt;&lt;div&gt;  &lt;span style=&quot;color: #e06c75;&quot;&gt;_dirty&lt;/span&gt;&lt;span style=&quot;color: #56b6c2;&quot;&gt;=&lt;/span&gt;&lt;span style=&quot;color: #d19a66;&quot;&gt;true&lt;/span&gt;&lt;/div&gt;&lt;div&gt;  &lt;span style=&quot;color: #e06c75;&quot;&gt;_value&lt;/span&gt;&lt;span style=&quot;color: #56b6c2;&quot;&gt;=&lt;/span&gt;&lt;span style=&quot;color: #d19a66;&quot;&gt;undefined&lt;/span&gt;&lt;/div&gt;&lt;div&gt;  &lt;span style=&quot;color: #c678dd;&quot;&gt;constructor&lt;/span&gt;(&lt;span style=&quot;color: #c678dd;&quot;&gt;public&lt;/span&gt; &lt;span style=&quot;color: #e06c75;font-style: italic;&quot;&gt;getter&lt;/span&gt;,&lt;span style=&quot;color: #c678dd;&quot;&gt;public&lt;/span&gt; &lt;span style=&quot;color: #e06c75;font-style: italic;&quot;&gt;setter&lt;/span&gt;) {&lt;/div&gt;&lt;div&gt;    &lt;span style=&quot;color: #e5c07b;&quot;&gt;this&lt;/span&gt;.&lt;span style=&quot;color: #e06c75;&quot;&gt;effect&lt;/span&gt;&lt;span style=&quot;color: #56b6c2;&quot;&gt;=&lt;/span&gt;&lt;span style=&quot;color: #c678dd;&quot;&gt;new&lt;/span&gt; &lt;span style=&quot;color: #e5c07b;&quot;&gt;ReactiveEffect&lt;/span&gt;(&lt;span style=&quot;color: #e06c75;font-style: italic;&quot;&gt;getter&lt;/span&gt;,()&lt;span style=&quot;color: #c678dd;&quot;&gt;=&amp;gt;&lt;/span&gt;{&lt;/div&gt;&lt;div&gt;      &lt;span style=&quot;color: #e5c07b;&quot;&gt;this&lt;/span&gt;.&lt;span style=&quot;color: #e06c75;&quot;&gt;_dirty&lt;/span&gt;&lt;span style=&quot;color: #56b6c2;&quot;&gt;=&lt;/span&gt;&lt;span style=&quot;color: #d19a66;&quot;&gt;true&lt;/span&gt;&lt;/div&gt;&lt;div&gt;      &lt;span style=&quot;color: #61afef;&quot;&gt;triggerEffects&lt;/span&gt;(&lt;span style=&quot;color: #e5c07b;&quot;&gt;this&lt;/span&gt;.&lt;span style=&quot;color: #e06c75;&quot;&gt;dep&lt;/span&gt;)&lt;/div&gt;&lt;div&gt;    })&lt;/div&gt;&lt;div&gt;  }&lt;/div&gt;&lt;/div&gt;" style="text;html=1;align=center;verticalAlign=middle;resizable=0;points=[];autosize=1;strokeColor=none;fillColor=none;" vertex="1" parent="1">
                    <mxGeometry x="645" y="220" width="360" height="230" as="geometry"/>
                </mxCell>
                <mxCell id="15" value="1. 通过.value取值的话会走对象的get方法&lt;br&gt;2. 如果activeEffect存在的话进行依赖收集" style="text;html=1;align=center;verticalAlign=middle;resizable=0;points=[];autosize=1;strokeColor=none;fillColor=none;" vertex="1" parent="1">
                    <mxGeometry x="640" y="490" width="240" height="40" as="geometry"/>
                </mxCell>
            </root>
        </mxGraphModel>
    </diagram>
</mxfile>